<?xml version="1.0" encoding="utf-8" standalone="no"?>
<!DOCTYPE svg PUBLIC "-//W3C//DTD SVG 1.1//EN"
  "http://www.w3.org/Graphics/SVG/1.1/DTD/svg11.dtd">
<svg xmlns:xlink="http://www.w3.org/1999/xlink" width="720pt" height="576pt" viewBox="0 0 720 576" xmlns="http://www.w3.org/2000/svg" version="1.1">
 <metadata>
  <rdf:RDF xmlns:dc="http://purl.org/dc/elements/1.1/" xmlns:cc="http://creativecommons.org/ns#" xmlns:rdf="http://www.w3.org/1999/02/22-rdf-syntax-ns#">
   <cc:Work>
    <dc:type rdf:resource="http://purl.org/dc/dcmitype/StillImage"/>
    <dc:date>2024-05-14T09:07:19.927159</dc:date>
    <dc:format>image/svg+xml</dc:format>
    <dc:creator>
     <cc:Agent>
      <dc:title>Matplotlib v3.8.4, https://matplotlib.org/</dc:title>
     </cc:Agent>
    </dc:creator>
   </cc:Work>
  </rdf:RDF>
 </metadata>
 <defs>
  <style type="text/css">*{stroke-linejoin: round; stroke-linecap: butt}</style>
 </defs>
 <g id="figure_1">
  <g id="patch_1">
   <path d="M 0 576 
L 720 576 
L 720 0 
L 0 0 
z
" style="fill: #ffffff"/>
  </g>
  <g id="axes_1">
   <g id="patch_2">
    <path d="M 50.092685 392.38 
L 709.2 392.38 
L 709.2 26.88 
L 50.092685 26.88 
z
" style="fill: #ffffff"/>
   </g>
   <g id="PathCollection_1">
    <defs>
     <path id="m46667ea261" d="M 0 3 
C 0.795609 3 1.55874 2.683901 2.12132 2.12132 
C 2.683901 1.55874 3 0.795609 3 0 
C 3 -0.795609 2.683901 -1.55874 2.12132 -2.12132 
C 1.55874 -2.683901 0.795609 -3 0 -3 
C -0.795609 -3 -1.55874 -2.683901 -2.12132 -2.12132 
C -2.683901 -1.55874 -3 -0.795609 -3 0 
C -3 0.795609 -2.683901 1.55874 -2.12132 2.12132 
C -1.55874 2.683901 -0.795609 3 0 3 
z
" style="stroke: #1f77b4"/>
    </defs>
    <g clip-path="url(#p99bb339313)">
     <use xlink:href="#m46667ea261" x="80.052108" y="373.408294" style="fill: #1f77b4; stroke: #1f77b4"/>
     <use xlink:href="#m46667ea261" x="80.052108" y="375.766364" style="fill: #1f77b4; stroke: #1f77b4"/>
     <use xlink:href="#m46667ea261" x="80.052108" y="373.908176" style="fill: #1f77b4; stroke: #1f77b4"/>
    </g>
   </g>
   <g id="PathCollection_2">
    <defs>
     <path id="m4de98bf201" d="M 0 3 
C 0.795609 3 1.55874 2.683901 2.12132 2.12132 
C 2.683901 1.55874 3 0.795609 3 0 
C 3 -0.795609 2.683901 -1.55874 2.12132 -2.12132 
C 1.55874 -2.683901 0.795609 -3 0 -3 
C -0.795609 -3 -1.55874 -2.683901 -2.12132 -2.12132 
C -2.683901 -1.55874 -3 -0.795609 -3 0 
C -3 0.795609 -2.683901 1.55874 -2.12132 2.12132 
C -1.55874 2.683901 -0.795609 3 0 3 
z
" style="stroke: #ff7f0e"/>
    </defs>
    <g clip-path="url(#p99bb339313)">
     <use xlink:href="#m4de98bf201" x="139.970955" y="372.271184" style="fill: #ff7f0e; stroke: #ff7f0e"/>
     <use xlink:href="#m4de98bf201" x="139.970955" y="374.470625" style="fill: #ff7f0e; stroke: #ff7f0e"/>
     <use xlink:href="#m4de98bf201" x="139.970955" y="372.669214" style="fill: #ff7f0e; stroke: #ff7f0e"/>
    </g>
   </g>
   <g id="PathCollection_3">
    <defs>
     <path id="mc4542f1af9" d="M 0 3 
C 0.795609 3 1.55874 2.683901 2.12132 2.12132 
C 2.683901 1.55874 3 0.795609 3 0 
C 3 -0.795609 2.683901 -1.55874 2.12132 -2.12132 
C 1.55874 -2.683901 0.795609 -3 0 -3 
C -0.795609 -3 -1.55874 -2.683901 -2.12132 -2.12132 
C -2.683901 -1.55874 -3 -0.795609 -3 0 
C -3 0.795609 -2.683901 1.55874 -2.12132 2.12132 
C -1.55874 2.683901 -0.795609 3 0 3 
z
" style="stroke: #2ca02c"/>
    </defs>
    <g clip-path="url(#p99bb339313)">
     <use xlink:href="#mc4542f1af9" x="199.889802" y="371.163562" style="fill: #2ca02c; stroke: #2ca02c"/>
     <use xlink:href="#mc4542f1af9" x="199.889802" y="373.38919" style="fill: #2ca02c; stroke: #2ca02c"/>
     <use xlink:href="#mc4542f1af9" x="199.889802" y="371.604472" style="fill: #2ca02c; stroke: #2ca02c"/>
    </g>
   </g>
   <g id="PathCollection_4">
    <defs>
     <path id="m61d41104b4" d="M 0 3 
C 0.795609 3 1.55874 2.683901 2.12132 2.12132 
C 2.683901 1.55874 3 0.795609 3 0 
C 3 -0.795609 2.683901 -1.55874 2.12132 -2.12132 
C 1.55874 -2.683901 0.795609 -3 0 -3 
C -0.795609 -3 -1.55874 -2.683901 -2.12132 -2.12132 
C -2.683901 -1.55874 -3 -0.795609 -3 0 
C -3 0.795609 -2.683901 1.55874 -2.12132 2.12132 
C -1.55874 2.683901 -0.795609 3 0 3 
z
" style="stroke: #d62728"/>
    </defs>
    <g clip-path="url(#p99bb339313)">
     <use xlink:href="#m61d41104b4" x="259.808649" y="372.410167" style="fill: #d62728; stroke: #d62728"/>
     <use xlink:href="#m61d41104b4" x="259.808649" y="370.220817" style="fill: #d62728; stroke: #d62728"/>
    </g>
   </g>
   <g id="PathCollection_5">
    <defs>
     <path id="ma23ea38bd5" d="M 0 3 
C 0.795609 3 1.55874 2.683901 2.12132 2.12132 
C 2.683901 1.55874 3 0.795609 3 0 
C 3 -0.795609 2.683901 -1.55874 2.12132 -2.12132 
C 1.55874 -2.683901 0.795609 -3 0 -3 
C -0.795609 -3 -1.55874 -2.683901 -2.12132 -2.12132 
C -2.683901 -1.55874 -3 -0.795609 -3 0 
C -3 0.795609 -2.683901 1.55874 -2.12132 2.12132 
C -1.55874 2.683901 -0.795609 3 0 3 
z
" style="stroke: #9467bd"/>
    </defs>
    <g clip-path="url(#p99bb339313)">
     <use xlink:href="#ma23ea38bd5" x="319.727496" y="366.729885" style="fill: #9467bd; stroke: #9467bd"/>
     <use xlink:href="#ma23ea38bd5" x="319.727496" y="368.273874" style="fill: #9467bd; stroke: #9467bd"/>
     <use xlink:href="#ma23ea38bd5" x="319.727496" y="366.238489" style="fill: #9467bd; stroke: #9467bd"/>
    </g>
   </g>
   <g id="PathCollection_6">
    <defs>
     <path id="mafead6c5e0" d="M 0 3 
C 0.795609 3 1.55874 2.683901 2.12132 2.12132 
C 2.683901 1.55874 3 0.795609 3 0 
C 3 -0.795609 2.683901 -1.55874 2.12132 -2.12132 
C 1.55874 -2.683901 0.795609 -3 0 -3 
C -0.795609 -3 -1.55874 -2.683901 -2.12132 -2.12132 
C -2.683901 -1.55874 -3 -0.795609 -3 0 
C -3 0.795609 -2.683901 1.55874 -2.12132 2.12132 
C -1.55874 2.683901 -0.795609 3 0 3 
z
" style="stroke: #8c564b"/>
    </defs>
    <g clip-path="url(#p99bb339313)">
     <use xlink:href="#mafead6c5e0" x="379.646342" y="366.090112" style="fill: #8c564b; stroke: #8c564b"/>
     <use xlink:href="#mafead6c5e0" x="379.646342" y="367.810568" style="fill: #8c564b; stroke: #8c564b"/>
     <use xlink:href="#mafead6c5e0" x="379.646342" y="366.007021" style="fill: #8c564b; stroke: #8c564b"/>
    </g>
   </g>
   <g id="PathCollection_7">
    <defs>
     <path id="m220229f5ec" d="M 0 3 
C 0.795609 3 1.55874 2.683901 2.12132 2.12132 
C 2.683901 1.55874 3 0.795609 3 0 
C 3 -0.795609 2.683901 -1.55874 2.12132 -2.12132 
C 1.55874 -2.683901 0.795609 -3 0 -3 
C -0.795609 -3 -1.55874 -2.683901 -2.12132 -2.12132 
C -2.683901 -1.55874 -3 -0.795609 -3 0 
C -3 0.795609 -2.683901 1.55874 -2.12132 2.12132 
C -1.55874 2.683901 -0.795609 3 0 3 
z
" style="stroke: #e377c2"/>
    </defs>
    <g clip-path="url(#p99bb339313)">
     <use xlink:href="#m220229f5ec" x="439.565189" y="366.610811" style="fill: #e377c2; stroke: #e377c2"/>
    </g>
   </g>
   <g id="PathCollection_8">
    <defs>
     <path id="mea072cd351" d="M 0 3 
C 0.795609 3 1.55874 2.683901 2.12132 2.12132 
C 2.683901 1.55874 3 0.795609 3 0 
C 3 -0.795609 2.683901 -1.55874 2.12132 -2.12132 
C 1.55874 -2.683901 0.795609 -3 0 -3 
C -0.795609 -3 -1.55874 -2.683901 -2.12132 -2.12132 
C -2.683901 -1.55874 -3 -0.795609 -3 0 
C -3 0.795609 -2.683901 1.55874 -2.12132 2.12132 
C -1.55874 2.683901 -0.795609 3 0 3 
z
" style="stroke: #7f7f7f"/>
    </defs>
    <g clip-path="url(#p99bb339313)">
     <use xlink:href="#mea072cd351" x="499.484036" y="357.051934" style="fill: #7f7f7f; stroke: #7f7f7f"/>
     <use xlink:href="#mea072cd351" x="499.484036" y="358.860924" style="fill: #7f7f7f; stroke: #7f7f7f"/>
     <use xlink:href="#mea072cd351" x="499.484036" y="358.114034" style="fill: #7f7f7f; stroke: #7f7f7f"/>
    </g>
   </g>
   <g id="PathCollection_9">
    <defs>
     <path id="m4707b23584" d="M 0 3 
C 0.795609 3 1.55874 2.683901 2.12132 2.12132 
C 2.683901 1.55874 3 0.795609 3 0 
C 3 -0.795609 2.683901 -1.55874 2.12132 -2.12132 
C 1.55874 -2.683901 0.795609 -3 0 -3 
C -0.795609 -3 -1.55874 -2.683901 -2.12132 -2.12132 
C -2.683901 -1.55874 -3 -0.795609 -3 0 
C -3 0.795609 -2.683901 1.55874 -2.12132 2.12132 
C -1.55874 2.683901 -0.795609 3 0 3 
z
" style="stroke: #bcbd22"/>
    </defs>
    <g clip-path="url(#p99bb339313)">
     <use xlink:href="#m4707b23584" x="559.402883" y="231.955208" style="fill: #bcbd22; stroke: #bcbd22"/>
     <use xlink:href="#m4707b23584" x="559.402883" y="243.949165" style="fill: #bcbd22; stroke: #bcbd22"/>
     <use xlink:href="#m4707b23584" x="559.402883" y="235.66218" style="fill: #bcbd22; stroke: #bcbd22"/>
    </g>
   </g>
   <g id="PathCollection_10">
    <defs>
     <path id="m5db2e984d7" d="M 0 3 
C 0.795609 3 1.55874 2.683901 2.12132 2.12132 
C 2.683901 1.55874 3 0.795609 3 0 
C 3 -0.795609 2.683901 -1.55874 2.12132 -2.12132 
C 1.55874 -2.683901 0.795609 -3 0 -3 
C -0.795609 -3 -1.55874 -2.683901 -2.12132 -2.12132 
C -2.683901 -1.55874 -3 -0.795609 -3 0 
C -3 0.795609 -2.683901 1.55874 -2.12132 2.12132 
C -1.55874 2.683901 -0.795609 3 0 3 
z
" style="stroke: #17becf"/>
    </defs>
    <g clip-path="url(#p99bb339313)">
     <use xlink:href="#m5db2e984d7" x="619.32173" y="166.57373" style="fill: #17becf; stroke: #17becf"/>
     <use xlink:href="#m5db2e984d7" x="619.32173" y="171.411035" style="fill: #17becf; stroke: #17becf"/>
     <use xlink:href="#m5db2e984d7" x="619.32173" y="168.3704" style="fill: #17becf; stroke: #17becf"/>
    </g>
   </g>
   <g id="PathCollection_11">
    <g clip-path="url(#p99bb339313)">
     <use xlink:href="#m46667ea261" x="679.240577" y="44.132313" style="fill: #1f77b4; stroke: #1f77b4"/>
     <use xlink:href="#m46667ea261" x="679.240577" y="43.493636" style="fill: #1f77b4; stroke: #1f77b4"/>
     <use xlink:href="#m46667ea261" x="679.240577" y="43.705562" style="fill: #1f77b4; stroke: #1f77b4"/>
    </g>
   </g>
   <g id="matplotlib.axis_1">
    <g id="xtick_1">
     <g id="line2d_1">
      <path d="M 80.052108 392.38 
L 80.052108 26.88 
" clip-path="url(#p99bb339313)" style="fill: none; stroke: #b0b0b0; stroke-width: 0.8; stroke-linecap: square"/>
     </g>
     <g id="line2d_2">
      <defs>
       <path id="me579ce4ff3" d="M 0 0 
L 0 3.5 
" style="stroke: #000000; stroke-width: 0.8"/>
      </defs>
      <g>
       <use xlink:href="#me579ce4ff3" x="80.052108" y="392.38" style="stroke: #000000; stroke-width: 0.8"/>
      </g>
     </g>
     <g id="text_1">
      <!-- virtual best -->
      <g transform="translate(82.811483 456.16125) rotate(-90) scale(0.1 -0.1)">
       <defs>
        <path id="DejaVuSans-76" d="M 191 3500 
L 800 3500 
L 1894 563 
L 2988 3500 
L 3597 3500 
L 2284 0 
L 1503 0 
L 191 3500 
z
" transform="scale(0.015625)"/>
        <path id="DejaVuSans-69" d="M 603 3500 
L 1178 3500 
L 1178 0 
L 603 0 
L 603 3500 
z
M 603 4863 
L 1178 4863 
L 1178 4134 
L 603 4134 
L 603 4863 
z
" transform="scale(0.015625)"/>
        <path id="DejaVuSans-72" d="M 2631 2963 
Q 2534 3019 2420 3045 
Q 2306 3072 2169 3072 
Q 1681 3072 1420 2755 
Q 1159 2438 1159 1844 
L 1159 0 
L 581 0 
L 581 3500 
L 1159 3500 
L 1159 2956 
Q 1341 3275 1631 3429 
Q 1922 3584 2338 3584 
Q 2397 3584 2469 3576 
Q 2541 3569 2628 3553 
L 2631 2963 
z
" transform="scale(0.015625)"/>
        <path id="DejaVuSans-74" d="M 1172 4494 
L 1172 3500 
L 2356 3500 
L 2356 3053 
L 1172 3053 
L 1172 1153 
Q 1172 725 1289 603 
Q 1406 481 1766 481 
L 2356 481 
L 2356 0 
L 1766 0 
Q 1100 0 847 248 
Q 594 497 594 1153 
L 594 3053 
L 172 3053 
L 172 3500 
L 594 3500 
L 594 4494 
L 1172 4494 
z
" transform="scale(0.015625)"/>
        <path id="DejaVuSans-75" d="M 544 1381 
L 544 3500 
L 1119 3500 
L 1119 1403 
Q 1119 906 1312 657 
Q 1506 409 1894 409 
Q 2359 409 2629 706 
Q 2900 1003 2900 1516 
L 2900 3500 
L 3475 3500 
L 3475 0 
L 2900 0 
L 2900 538 
Q 2691 219 2414 64 
Q 2138 -91 1772 -91 
Q 1169 -91 856 284 
Q 544 659 544 1381 
z
M 1991 3584 
L 1991 3584 
z
" transform="scale(0.015625)"/>
        <path id="DejaVuSans-61" d="M 2194 1759 
Q 1497 1759 1228 1600 
Q 959 1441 959 1056 
Q 959 750 1161 570 
Q 1363 391 1709 391 
Q 2188 391 2477 730 
Q 2766 1069 2766 1631 
L 2766 1759 
L 2194 1759 
z
M 3341 1997 
L 3341 0 
L 2766 0 
L 2766 531 
Q 2569 213 2275 61 
Q 1981 -91 1556 -91 
Q 1019 -91 701 211 
Q 384 513 384 1019 
Q 384 1609 779 1909 
Q 1175 2209 1959 2209 
L 2766 2209 
L 2766 2266 
Q 2766 2663 2505 2880 
Q 2244 3097 1772 3097 
Q 1472 3097 1187 3025 
Q 903 2953 641 2809 
L 641 3341 
Q 956 3463 1253 3523 
Q 1550 3584 1831 3584 
Q 2591 3584 2966 3190 
Q 3341 2797 3341 1997 
z
" transform="scale(0.015625)"/>
        <path id="DejaVuSans-6c" d="M 603 4863 
L 1178 4863 
L 1178 0 
L 603 0 
L 603 4863 
z
" transform="scale(0.015625)"/>
        <path id="DejaVuSans-20" transform="scale(0.015625)"/>
        <path id="DejaVuSans-62" d="M 3116 1747 
Q 3116 2381 2855 2742 
Q 2594 3103 2138 3103 
Q 1681 3103 1420 2742 
Q 1159 2381 1159 1747 
Q 1159 1113 1420 752 
Q 1681 391 2138 391 
Q 2594 391 2855 752 
Q 3116 1113 3116 1747 
z
M 1159 2969 
Q 1341 3281 1617 3432 
Q 1894 3584 2278 3584 
Q 2916 3584 3314 3078 
Q 3713 2572 3713 1747 
Q 3713 922 3314 415 
Q 2916 -91 2278 -91 
Q 1894 -91 1617 61 
Q 1341 213 1159 525 
L 1159 0 
L 581 0 
L 581 4863 
L 1159 4863 
L 1159 2969 
z
" transform="scale(0.015625)"/>
        <path id="DejaVuSans-65" d="M 3597 1894 
L 3597 1613 
L 953 1613 
Q 991 1019 1311 708 
Q 1631 397 2203 397 
Q 2534 397 2845 478 
Q 3156 559 3463 722 
L 3463 178 
Q 3153 47 2828 -22 
Q 2503 -91 2169 -91 
Q 1331 -91 842 396 
Q 353 884 353 1716 
Q 353 2575 817 3079 
Q 1281 3584 2069 3584 
Q 2775 3584 3186 3129 
Q 3597 2675 3597 1894 
z
M 3022 2063 
Q 3016 2534 2758 2815 
Q 2500 3097 2075 3097 
Q 1594 3097 1305 2825 
Q 1016 2553 972 2059 
L 3022 2063 
z
" transform="scale(0.015625)"/>
        <path id="DejaVuSans-73" d="M 2834 3397 
L 2834 2853 
Q 2591 2978 2328 3040 
Q 2066 3103 1784 3103 
Q 1356 3103 1142 2972 
Q 928 2841 928 2578 
Q 928 2378 1081 2264 
Q 1234 2150 1697 2047 
L 1894 2003 
Q 2506 1872 2764 1633 
Q 3022 1394 3022 966 
Q 3022 478 2636 193 
Q 2250 -91 1575 -91 
Q 1294 -91 989 -36 
Q 684 19 347 128 
L 347 722 
Q 666 556 975 473 
Q 1284 391 1588 391 
Q 1994 391 2212 530 
Q 2431 669 2431 922 
Q 2431 1156 2273 1281 
Q 2116 1406 1581 1522 
L 1381 1569 
Q 847 1681 609 1914 
Q 372 2147 372 2553 
Q 372 3047 722 3315 
Q 1072 3584 1716 3584 
Q 2034 3584 2315 3537 
Q 2597 3491 2834 3397 
z
" transform="scale(0.015625)"/>
       </defs>
       <use xlink:href="#DejaVuSans-76"/>
       <use xlink:href="#DejaVuSans-69" x="59.179688"/>
       <use xlink:href="#DejaVuSans-72" x="86.962891"/>
       <use xlink:href="#DejaVuSans-74" x="128.076172"/>
       <use xlink:href="#DejaVuSans-75" x="167.285156"/>
       <use xlink:href="#DejaVuSans-61" x="230.664062"/>
       <use xlink:href="#DejaVuSans-6c" x="291.943359"/>
       <use xlink:href="#DejaVuSans-20" x="319.726562"/>
       <use xlink:href="#DejaVuSans-62" x="351.513672"/>
       <use xlink:href="#DejaVuSans-65" x="414.990234"/>
       <use xlink:href="#DejaVuSans-73" x="476.513672"/>
       <use xlink:href="#DejaVuSans-74" x="528.613281"/>
      </g>
     </g>
    </g>
    <g id="xtick_2">
     <g id="line2d_3">
      <path d="M 139.970955 392.38 
L 139.970955 26.88 
" clip-path="url(#p99bb339313)" style="fill: none; stroke: #b0b0b0; stroke-width: 0.8; stroke-linecap: square"/>
     </g>
     <g id="line2d_4">
      <g>
       <use xlink:href="#me579ce4ff3" x="139.970955" y="392.38" style="stroke: #000000; stroke-width: 0.8"/>
      </g>
     </g>
     <g id="text_2">
      <!-- autofolio_dnn -->
      <g transform="translate(142.591268 467.222188) rotate(-90) scale(0.1 -0.1)">
       <defs>
        <path id="DejaVuSans-6f" d="M 1959 3097 
Q 1497 3097 1228 2736 
Q 959 2375 959 1747 
Q 959 1119 1226 758 
Q 1494 397 1959 397 
Q 2419 397 2687 759 
Q 2956 1122 2956 1747 
Q 2956 2369 2687 2733 
Q 2419 3097 1959 3097 
z
M 1959 3584 
Q 2709 3584 3137 3096 
Q 3566 2609 3566 1747 
Q 3566 888 3137 398 
Q 2709 -91 1959 -91 
Q 1206 -91 779 398 
Q 353 888 353 1747 
Q 353 2609 779 3096 
Q 1206 3584 1959 3584 
z
" transform="scale(0.015625)"/>
        <path id="DejaVuSans-66" d="M 2375 4863 
L 2375 4384 
L 1825 4384 
Q 1516 4384 1395 4259 
Q 1275 4134 1275 3809 
L 1275 3500 
L 2222 3500 
L 2222 3053 
L 1275 3053 
L 1275 0 
L 697 0 
L 697 3053 
L 147 3053 
L 147 3500 
L 697 3500 
L 697 3744 
Q 697 4328 969 4595 
Q 1241 4863 1831 4863 
L 2375 4863 
z
" transform="scale(0.015625)"/>
        <path id="DejaVuSans-5f" d="M 3263 -1063 
L 3263 -1509 
L -63 -1509 
L -63 -1063 
L 3263 -1063 
z
" transform="scale(0.015625)"/>
        <path id="DejaVuSans-64" d="M 2906 2969 
L 2906 4863 
L 3481 4863 
L 3481 0 
L 2906 0 
L 2906 525 
Q 2725 213 2448 61 
Q 2172 -91 1784 -91 
Q 1150 -91 751 415 
Q 353 922 353 1747 
Q 353 2572 751 3078 
Q 1150 3584 1784 3584 
Q 2172 3584 2448 3432 
Q 2725 3281 2906 2969 
z
M 947 1747 
Q 947 1113 1208 752 
Q 1469 391 1925 391 
Q 2381 391 2643 752 
Q 2906 1113 2906 1747 
Q 2906 2381 2643 2742 
Q 2381 3103 1925 3103 
Q 1469 3103 1208 2742 
Q 947 2381 947 1747 
z
" transform="scale(0.015625)"/>
        <path id="DejaVuSans-6e" d="M 3513 2113 
L 3513 0 
L 2938 0 
L 2938 2094 
Q 2938 2591 2744 2837 
Q 2550 3084 2163 3084 
Q 1697 3084 1428 2787 
Q 1159 2491 1159 1978 
L 1159 0 
L 581 0 
L 581 3500 
L 1159 3500 
L 1159 2956 
Q 1366 3272 1645 3428 
Q 1925 3584 2291 3584 
Q 2894 3584 3203 3211 
Q 3513 2838 3513 2113 
z
" transform="scale(0.015625)"/>
       </defs>
       <use xlink:href="#DejaVuSans-61"/>
       <use xlink:href="#DejaVuSans-75" x="61.279297"/>
       <use xlink:href="#DejaVuSans-74" x="124.658203"/>
       <use xlink:href="#DejaVuSans-6f" x="163.867188"/>
       <use xlink:href="#DejaVuSans-66" x="225.048828"/>
       <use xlink:href="#DejaVuSans-6f" x="260.253906"/>
       <use xlink:href="#DejaVuSans-6c" x="321.435547"/>
       <use xlink:href="#DejaVuSans-69" x="349.21875"/>
       <use xlink:href="#DejaVuSans-6f" x="377.001953"/>
       <use xlink:href="#DejaVuSans-5f" x="438.183594"/>
       <use xlink:href="#DejaVuSans-64" x="488.183594"/>
       <use xlink:href="#DejaVuSans-6e" x="551.660156"/>
       <use xlink:href="#DejaVuSans-6e" x="615.039062"/>
      </g>
     </g>
    </g>
    <g id="xtick_3">
     <g id="line2d_5">
      <path d="M 199.889802 392.38 
L 199.889802 26.88 
" clip-path="url(#p99bb339313)" style="fill: none; stroke: #b0b0b0; stroke-width: 0.8; stroke-linecap: square"/>
     </g>
     <g id="line2d_6">
      <g>
       <use xlink:href="#me579ce4ff3" x="199.889802" y="392.38" style="stroke: #000000; stroke-width: 0.8"/>
      </g>
     </g>
     <g id="text_3">
      <!-- autofolio_fzn2feat -->
      <g transform="translate(202.510114 489.389375) rotate(-90) scale(0.1 -0.1)">
       <defs>
        <path id="DejaVuSans-7a" d="M 353 3500 
L 3084 3500 
L 3084 2975 
L 922 459 
L 3084 459 
L 3084 0 
L 275 0 
L 275 525 
L 2438 3041 
L 353 3041 
L 353 3500 
z
" transform="scale(0.015625)"/>
        <path id="DejaVuSans-32" d="M 1228 531 
L 3431 531 
L 3431 0 
L 469 0 
L 469 531 
Q 828 903 1448 1529 
Q 2069 2156 2228 2338 
Q 2531 2678 2651 2914 
Q 2772 3150 2772 3378 
Q 2772 3750 2511 3984 
Q 2250 4219 1831 4219 
Q 1534 4219 1204 4116 
Q 875 4013 500 3803 
L 500 4441 
Q 881 4594 1212 4672 
Q 1544 4750 1819 4750 
Q 2544 4750 2975 4387 
Q 3406 4025 3406 3419 
Q 3406 3131 3298 2873 
Q 3191 2616 2906 2266 
Q 2828 2175 2409 1742 
Q 1991 1309 1228 531 
z
" transform="scale(0.015625)"/>
       </defs>
       <use xlink:href="#DejaVuSans-61"/>
       <use xlink:href="#DejaVuSans-75" x="61.279297"/>
       <use xlink:href="#DejaVuSans-74" x="124.658203"/>
       <use xlink:href="#DejaVuSans-6f" x="163.867188"/>
       <use xlink:href="#DejaVuSans-66" x="225.048828"/>
       <use xlink:href="#DejaVuSans-6f" x="260.253906"/>
       <use xlink:href="#DejaVuSans-6c" x="321.435547"/>
       <use xlink:href="#DejaVuSans-69" x="349.21875"/>
       <use xlink:href="#DejaVuSans-6f" x="377.001953"/>
       <use xlink:href="#DejaVuSans-5f" x="438.183594"/>
       <use xlink:href="#DejaVuSans-66" x="488.183594"/>
       <use xlink:href="#DejaVuSans-7a" x="523.388672"/>
       <use xlink:href="#DejaVuSans-6e" x="575.878906"/>
       <use xlink:href="#DejaVuSans-32" x="639.257812"/>
       <use xlink:href="#DejaVuSans-66" x="702.880859"/>
       <use xlink:href="#DejaVuSans-65" x="738.085938"/>
       <use xlink:href="#DejaVuSans-61" x="799.609375"/>
       <use xlink:href="#DejaVuSans-74" x="860.888672"/>
      </g>
     </g>
    </g>
    <g id="xtick_4">
     <g id="line2d_7">
      <path d="M 259.808649 392.38 
L 259.808649 26.88 
" clip-path="url(#p99bb339313)" style="fill: none; stroke: #b0b0b0; stroke-width: 0.8; stroke-linecap: square"/>
     </g>
     <g id="line2d_8">
      <g>
       <use xlink:href="#me579ce4ff3" x="259.808649" y="392.38" style="stroke: #000000; stroke-width: 0.8"/>
      </g>
     </g>
     <g id="text_4">
      <!-- autofolio_choiche -->
      <g transform="translate(262.428961 486.920625) rotate(-90) scale(0.1 -0.1)">
       <defs>
        <path id="DejaVuSans-63" d="M 3122 3366 
L 3122 2828 
Q 2878 2963 2633 3030 
Q 2388 3097 2138 3097 
Q 1578 3097 1268 2742 
Q 959 2388 959 1747 
Q 959 1106 1268 751 
Q 1578 397 2138 397 
Q 2388 397 2633 464 
Q 2878 531 3122 666 
L 3122 134 
Q 2881 22 2623 -34 
Q 2366 -91 2075 -91 
Q 1284 -91 818 406 
Q 353 903 353 1747 
Q 353 2603 823 3093 
Q 1294 3584 2113 3584 
Q 2378 3584 2631 3529 
Q 2884 3475 3122 3366 
z
" transform="scale(0.015625)"/>
        <path id="DejaVuSans-68" d="M 3513 2113 
L 3513 0 
L 2938 0 
L 2938 2094 
Q 2938 2591 2744 2837 
Q 2550 3084 2163 3084 
Q 1697 3084 1428 2787 
Q 1159 2491 1159 1978 
L 1159 0 
L 581 0 
L 581 4863 
L 1159 4863 
L 1159 2956 
Q 1366 3272 1645 3428 
Q 1925 3584 2291 3584 
Q 2894 3584 3203 3211 
Q 3513 2838 3513 2113 
z
" transform="scale(0.015625)"/>
       </defs>
       <use xlink:href="#DejaVuSans-61"/>
       <use xlink:href="#DejaVuSans-75" x="61.279297"/>
       <use xlink:href="#DejaVuSans-74" x="124.658203"/>
       <use xlink:href="#DejaVuSans-6f" x="163.867188"/>
       <use xlink:href="#DejaVuSans-66" x="225.048828"/>
       <use xlink:href="#DejaVuSans-6f" x="260.253906"/>
       <use xlink:href="#DejaVuSans-6c" x="321.435547"/>
       <use xlink:href="#DejaVuSans-69" x="349.21875"/>
       <use xlink:href="#DejaVuSans-6f" x="377.001953"/>
       <use xlink:href="#DejaVuSans-5f" x="438.183594"/>
       <use xlink:href="#DejaVuSans-63" x="488.183594"/>
       <use xlink:href="#DejaVuSans-68" x="543.164062"/>
       <use xlink:href="#DejaVuSans-6f" x="606.542969"/>
       <use xlink:href="#DejaVuSans-69" x="667.724609"/>
       <use xlink:href="#DejaVuSans-63" x="695.507812"/>
       <use xlink:href="#DejaVuSans-68" x="750.488281"/>
       <use xlink:href="#DejaVuSans-65" x="813.867188"/>
      </g>
     </g>
    </g>
    <g id="xtick_5">
     <g id="line2d_9">
      <path d="M 319.727496 392.38 
L 319.727496 26.88 
" clip-path="url(#p99bb339313)" style="fill: none; stroke: #b0b0b0; stroke-width: 0.8; stroke-linecap: square"/>
     </g>
     <g id="line2d_10">
      <g>
       <use xlink:href="#me579ce4ff3" x="319.727496" y="392.38" style="stroke: #000000; stroke-width: 0.8"/>
      </g>
     </g>
     <g id="text_5">
      <!-- kmeans_dnn -->
      <g transform="translate(322.347808 462.762812) rotate(-90) scale(0.1 -0.1)">
       <defs>
        <path id="DejaVuSans-6b" d="M 581 4863 
L 1159 4863 
L 1159 1991 
L 2875 3500 
L 3609 3500 
L 1753 1863 
L 3688 0 
L 2938 0 
L 1159 1709 
L 1159 0 
L 581 0 
L 581 4863 
z
" transform="scale(0.015625)"/>
        <path id="DejaVuSans-6d" d="M 3328 2828 
Q 3544 3216 3844 3400 
Q 4144 3584 4550 3584 
Q 5097 3584 5394 3201 
Q 5691 2819 5691 2113 
L 5691 0 
L 5113 0 
L 5113 2094 
Q 5113 2597 4934 2840 
Q 4756 3084 4391 3084 
Q 3944 3084 3684 2787 
Q 3425 2491 3425 1978 
L 3425 0 
L 2847 0 
L 2847 2094 
Q 2847 2600 2669 2842 
Q 2491 3084 2119 3084 
Q 1678 3084 1418 2786 
Q 1159 2488 1159 1978 
L 1159 0 
L 581 0 
L 581 3500 
L 1159 3500 
L 1159 2956 
Q 1356 3278 1631 3431 
Q 1906 3584 2284 3584 
Q 2666 3584 2933 3390 
Q 3200 3197 3328 2828 
z
" transform="scale(0.015625)"/>
       </defs>
       <use xlink:href="#DejaVuSans-6b"/>
       <use xlink:href="#DejaVuSans-6d" x="57.910156"/>
       <use xlink:href="#DejaVuSans-65" x="155.322266"/>
       <use xlink:href="#DejaVuSans-61" x="216.845703"/>
       <use xlink:href="#DejaVuSans-6e" x="278.125"/>
       <use xlink:href="#DejaVuSans-73" x="341.503906"/>
       <use xlink:href="#DejaVuSans-5f" x="393.603516"/>
       <use xlink:href="#DejaVuSans-64" x="443.603516"/>
       <use xlink:href="#DejaVuSans-6e" x="507.080078"/>
       <use xlink:href="#DejaVuSans-6e" x="570.458984"/>
      </g>
     </g>
    </g>
    <g id="xtick_6">
     <g id="line2d_11">
      <path d="M 379.646342 392.38 
L 379.646342 26.88 
" clip-path="url(#p99bb339313)" style="fill: none; stroke: #b0b0b0; stroke-width: 0.8; stroke-linecap: square"/>
     </g>
     <g id="line2d_12">
      <g>
       <use xlink:href="#me579ce4ff3" x="379.646342" y="392.38" style="stroke: #000000; stroke-width: 0.8"/>
      </g>
     </g>
     <g id="text_6">
      <!-- kmeans_choice -->
      <g transform="translate(382.266655 476.12375) rotate(-90) scale(0.1 -0.1)">
       <use xlink:href="#DejaVuSans-6b"/>
       <use xlink:href="#DejaVuSans-6d" x="57.910156"/>
       <use xlink:href="#DejaVuSans-65" x="155.322266"/>
       <use xlink:href="#DejaVuSans-61" x="216.845703"/>
       <use xlink:href="#DejaVuSans-6e" x="278.125"/>
       <use xlink:href="#DejaVuSans-73" x="341.503906"/>
       <use xlink:href="#DejaVuSans-5f" x="393.603516"/>
       <use xlink:href="#DejaVuSans-63" x="443.603516"/>
       <use xlink:href="#DejaVuSans-68" x="498.583984"/>
       <use xlink:href="#DejaVuSans-6f" x="561.962891"/>
       <use xlink:href="#DejaVuSans-69" x="623.144531"/>
       <use xlink:href="#DejaVuSans-63" x="650.927734"/>
       <use xlink:href="#DejaVuSans-65" x="705.908203"/>
      </g>
     </g>
    </g>
    <g id="xtick_7">
     <g id="line2d_13">
      <path d="M 439.565189 392.38 
L 439.565189 26.88 
" clip-path="url(#p99bb339313)" style="fill: none; stroke: #b0b0b0; stroke-width: 0.8; stroke-linecap: square"/>
     </g>
     <g id="line2d_14">
      <g>
       <use xlink:href="#me579ce4ff3" x="439.565189" y="392.38" style="stroke: #000000; stroke-width: 0.8"/>
      </g>
     </g>
     <g id="text_7">
      <!-- kmeans_fzn2feat -->
      <g transform="translate(442.185502 484.93) rotate(-90) scale(0.1 -0.1)">
       <use xlink:href="#DejaVuSans-6b"/>
       <use xlink:href="#DejaVuSans-6d" x="57.910156"/>
       <use xlink:href="#DejaVuSans-65" x="155.322266"/>
       <use xlink:href="#DejaVuSans-61" x="216.845703"/>
       <use xlink:href="#DejaVuSans-6e" x="278.125"/>
       <use xlink:href="#DejaVuSans-73" x="341.503906"/>
       <use xlink:href="#DejaVuSans-5f" x="393.603516"/>
       <use xlink:href="#DejaVuSans-66" x="443.603516"/>
       <use xlink:href="#DejaVuSans-7a" x="478.808594"/>
       <use xlink:href="#DejaVuSans-6e" x="531.298828"/>
       <use xlink:href="#DejaVuSans-32" x="594.677734"/>
       <use xlink:href="#DejaVuSans-66" x="658.300781"/>
       <use xlink:href="#DejaVuSans-65" x="693.505859"/>
       <use xlink:href="#DejaVuSans-61" x="755.029297"/>
       <use xlink:href="#DejaVuSans-74" x="816.308594"/>
      </g>
     </g>
    </g>
    <g id="xtick_8">
     <g id="line2d_15">
      <path d="M 499.484036 392.38 
L 499.484036 26.88 
" clip-path="url(#p99bb339313)" style="fill: none; stroke: #b0b0b0; stroke-width: 0.8; stroke-linecap: square"/>
     </g>
     <g id="line2d_16">
      <g>
       <use xlink:href="#me579ce4ff3" x="499.484036" y="392.38" style="stroke: #000000; stroke-width: 0.8"/>
      </g>
     </g>
     <g id="text_8">
      <!-- kissat_01_compact.eprime -->
      <g transform="translate(502.104349 532.856562) rotate(-90) scale(0.1 -0.1)">
       <defs>
        <path id="DejaVuSans-30" d="M 2034 4250 
Q 1547 4250 1301 3770 
Q 1056 3291 1056 2328 
Q 1056 1369 1301 889 
Q 1547 409 2034 409 
Q 2525 409 2770 889 
Q 3016 1369 3016 2328 
Q 3016 3291 2770 3770 
Q 2525 4250 2034 4250 
z
M 2034 4750 
Q 2819 4750 3233 4129 
Q 3647 3509 3647 2328 
Q 3647 1150 3233 529 
Q 2819 -91 2034 -91 
Q 1250 -91 836 529 
Q 422 1150 422 2328 
Q 422 3509 836 4129 
Q 1250 4750 2034 4750 
z
" transform="scale(0.015625)"/>
        <path id="DejaVuSans-31" d="M 794 531 
L 1825 531 
L 1825 4091 
L 703 3866 
L 703 4441 
L 1819 4666 
L 2450 4666 
L 2450 531 
L 3481 531 
L 3481 0 
L 794 0 
L 794 531 
z
" transform="scale(0.015625)"/>
        <path id="DejaVuSans-70" d="M 1159 525 
L 1159 -1331 
L 581 -1331 
L 581 3500 
L 1159 3500 
L 1159 2969 
Q 1341 3281 1617 3432 
Q 1894 3584 2278 3584 
Q 2916 3584 3314 3078 
Q 3713 2572 3713 1747 
Q 3713 922 3314 415 
Q 2916 -91 2278 -91 
Q 1894 -91 1617 61 
Q 1341 213 1159 525 
z
M 3116 1747 
Q 3116 2381 2855 2742 
Q 2594 3103 2138 3103 
Q 1681 3103 1420 2742 
Q 1159 2381 1159 1747 
Q 1159 1113 1420 752 
Q 1681 391 2138 391 
Q 2594 391 2855 752 
Q 3116 1113 3116 1747 
z
" transform="scale(0.015625)"/>
        <path id="DejaVuSans-2e" d="M 684 794 
L 1344 794 
L 1344 0 
L 684 0 
L 684 794 
z
" transform="scale(0.015625)"/>
       </defs>
       <use xlink:href="#DejaVuSans-6b"/>
       <use xlink:href="#DejaVuSans-69" x="57.910156"/>
       <use xlink:href="#DejaVuSans-73" x="85.693359"/>
       <use xlink:href="#DejaVuSans-73" x="137.792969"/>
       <use xlink:href="#DejaVuSans-61" x="189.892578"/>
       <use xlink:href="#DejaVuSans-74" x="251.171875"/>
       <use xlink:href="#DejaVuSans-5f" x="290.380859"/>
       <use xlink:href="#DejaVuSans-30" x="340.380859"/>
       <use xlink:href="#DejaVuSans-31" x="404.003906"/>
       <use xlink:href="#DejaVuSans-5f" x="467.626953"/>
       <use xlink:href="#DejaVuSans-63" x="517.626953"/>
       <use xlink:href="#DejaVuSans-6f" x="572.607422"/>
       <use xlink:href="#DejaVuSans-6d" x="633.789062"/>
       <use xlink:href="#DejaVuSans-70" x="731.201172"/>
       <use xlink:href="#DejaVuSans-61" x="794.677734"/>
       <use xlink:href="#DejaVuSans-63" x="855.957031"/>
       <use xlink:href="#DejaVuSans-74" x="910.9375"/>
       <use xlink:href="#DejaVuSans-2e" x="950.146484"/>
       <use xlink:href="#DejaVuSans-65" x="981.933594"/>
       <use xlink:href="#DejaVuSans-70" x="1043.457031"/>
       <use xlink:href="#DejaVuSans-72" x="1106.933594"/>
       <use xlink:href="#DejaVuSans-69" x="1148.046875"/>
       <use xlink:href="#DejaVuSans-6d" x="1175.830078"/>
       <use xlink:href="#DejaVuSans-65" x="1273.242188"/>
      </g>
     </g>
    </g>
    <g id="xtick_9">
     <g id="line2d_17">
      <path d="M 559.402883 392.38 
L 559.402883 26.88 
" clip-path="url(#p99bb339313)" style="fill: none; stroke: #b0b0b0; stroke-width: 0.8; stroke-linecap: square"/>
     </g>
     <g id="line2d_18">
      <g>
       <use xlink:href="#me579ce4ff3" x="559.402883" y="392.38" style="stroke: #000000; stroke-width: 0.8"/>
      </g>
     </g>
     <g id="text_9">
      <!-- chuffed_01_compact.eprime -->
      <g transform="translate(562.023195 541.53625) rotate(-90) scale(0.1 -0.1)">
       <use xlink:href="#DejaVuSans-63"/>
       <use xlink:href="#DejaVuSans-68" x="54.980469"/>
       <use xlink:href="#DejaVuSans-75" x="118.359375"/>
       <use xlink:href="#DejaVuSans-66" x="181.738281"/>
       <use xlink:href="#DejaVuSans-66" x="216.943359"/>
       <use xlink:href="#DejaVuSans-65" x="252.148438"/>
       <use xlink:href="#DejaVuSans-64" x="313.671875"/>
       <use xlink:href="#DejaVuSans-5f" x="377.148438"/>
       <use xlink:href="#DejaVuSans-30" x="427.148438"/>
       <use xlink:href="#DejaVuSans-31" x="490.771484"/>
       <use xlink:href="#DejaVuSans-5f" x="554.394531"/>
       <use xlink:href="#DejaVuSans-63" x="604.394531"/>
       <use xlink:href="#DejaVuSans-6f" x="659.375"/>
       <use xlink:href="#DejaVuSans-6d" x="720.556641"/>
       <use xlink:href="#DejaVuSans-70" x="817.96875"/>
       <use xlink:href="#DejaVuSans-61" x="881.445312"/>
       <use xlink:href="#DejaVuSans-63" x="942.724609"/>
       <use xlink:href="#DejaVuSans-74" x="997.705078"/>
       <use xlink:href="#DejaVuSans-2e" x="1036.914062"/>
       <use xlink:href="#DejaVuSans-65" x="1068.701172"/>
       <use xlink:href="#DejaVuSans-70" x="1130.224609"/>
       <use xlink:href="#DejaVuSans-72" x="1193.701172"/>
       <use xlink:href="#DejaVuSans-69" x="1234.814453"/>
       <use xlink:href="#DejaVuSans-6d" x="1262.597656"/>
       <use xlink:href="#DejaVuSans-65" x="1360.009766"/>
      </g>
     </g>
    </g>
    <g id="xtick_10">
     <g id="line2d_19">
      <path d="M 619.32173 392.38 
L 619.32173 26.88 
" clip-path="url(#p99bb339313)" style="fill: none; stroke: #b0b0b0; stroke-width: 0.8; stroke-linecap: square"/>
     </g>
     <g id="line2d_20">
      <g>
       <use xlink:href="#me579ce4ff3" x="619.32173" y="392.38" style="stroke: #000000; stroke-width: 0.8"/>
      </g>
     </g>
     <g id="text_10">
      <!-- or-tools-1_01_compact.eprime -->
      <g transform="translate(621.942042 551.13625) rotate(-90) scale(0.1 -0.1)">
       <defs>
        <path id="DejaVuSans-2d" d="M 313 2009 
L 1997 2009 
L 1997 1497 
L 313 1497 
L 313 2009 
z
" transform="scale(0.015625)"/>
       </defs>
       <use xlink:href="#DejaVuSans-6f"/>
       <use xlink:href="#DejaVuSans-72" x="61.181641"/>
       <use xlink:href="#DejaVuSans-2d" x="95.919922"/>
       <use xlink:href="#DejaVuSans-74" x="132.003906"/>
       <use xlink:href="#DejaVuSans-6f" x="171.212891"/>
       <use xlink:href="#DejaVuSans-6f" x="232.394531"/>
       <use xlink:href="#DejaVuSans-6c" x="293.576172"/>
       <use xlink:href="#DejaVuSans-73" x="321.359375"/>
       <use xlink:href="#DejaVuSans-2d" x="373.458984"/>
       <use xlink:href="#DejaVuSans-31" x="409.542969"/>
       <use xlink:href="#DejaVuSans-5f" x="473.166016"/>
       <use xlink:href="#DejaVuSans-30" x="523.166016"/>
       <use xlink:href="#DejaVuSans-31" x="586.789062"/>
       <use xlink:href="#DejaVuSans-5f" x="650.412109"/>
       <use xlink:href="#DejaVuSans-63" x="700.412109"/>
       <use xlink:href="#DejaVuSans-6f" x="755.392578"/>
       <use xlink:href="#DejaVuSans-6d" x="816.574219"/>
       <use xlink:href="#DejaVuSans-70" x="913.986328"/>
       <use xlink:href="#DejaVuSans-61" x="977.462891"/>
       <use xlink:href="#DejaVuSans-63" x="1038.742188"/>
       <use xlink:href="#DejaVuSans-74" x="1093.722656"/>
       <use xlink:href="#DejaVuSans-2e" x="1132.931641"/>
       <use xlink:href="#DejaVuSans-65" x="1164.71875"/>
       <use xlink:href="#DejaVuSans-70" x="1226.242188"/>
       <use xlink:href="#DejaVuSans-72" x="1289.71875"/>
       <use xlink:href="#DejaVuSans-69" x="1330.832031"/>
       <use xlink:href="#DejaVuSans-6d" x="1358.615234"/>
       <use xlink:href="#DejaVuSans-65" x="1456.027344"/>
      </g>
     </g>
    </g>
    <g id="xtick_11">
     <g id="line2d_21">
      <path d="M 679.240577 392.38 
L 679.240577 26.88 
" clip-path="url(#p99bb339313)" style="fill: none; stroke: #b0b0b0; stroke-width: 0.8; stroke-linecap: square"/>
     </g>
     <g id="line2d_22">
      <g>
       <use xlink:href="#me579ce4ff3" x="679.240577" y="392.38" style="stroke: #000000; stroke-width: 0.8"/>
      </g>
     </g>
     <g id="text_11">
      <!-- cplex_01_compact.eprime -->
      <g transform="translate(681.860889 530.3425) rotate(-90) scale(0.1 -0.1)">
       <defs>
        <path id="DejaVuSans-78" d="M 3513 3500 
L 2247 1797 
L 3578 0 
L 2900 0 
L 1881 1375 
L 863 0 
L 184 0 
L 1544 1831 
L 300 3500 
L 978 3500 
L 1906 2253 
L 2834 3500 
L 3513 3500 
z
" transform="scale(0.015625)"/>
       </defs>
       <use xlink:href="#DejaVuSans-63"/>
       <use xlink:href="#DejaVuSans-70" x="54.980469"/>
       <use xlink:href="#DejaVuSans-6c" x="118.457031"/>
       <use xlink:href="#DejaVuSans-65" x="146.240234"/>
       <use xlink:href="#DejaVuSans-78" x="206.013672"/>
       <use xlink:href="#DejaVuSans-5f" x="265.193359"/>
       <use xlink:href="#DejaVuSans-30" x="315.193359"/>
       <use xlink:href="#DejaVuSans-31" x="378.816406"/>
       <use xlink:href="#DejaVuSans-5f" x="442.439453"/>
       <use xlink:href="#DejaVuSans-63" x="492.439453"/>
       <use xlink:href="#DejaVuSans-6f" x="547.419922"/>
       <use xlink:href="#DejaVuSans-6d" x="608.601562"/>
       <use xlink:href="#DejaVuSans-70" x="706.013672"/>
       <use xlink:href="#DejaVuSans-61" x="769.490234"/>
       <use xlink:href="#DejaVuSans-63" x="830.769531"/>
       <use xlink:href="#DejaVuSans-74" x="885.75"/>
       <use xlink:href="#DejaVuSans-2e" x="924.958984"/>
       <use xlink:href="#DejaVuSans-65" x="956.746094"/>
       <use xlink:href="#DejaVuSans-70" x="1018.269531"/>
       <use xlink:href="#DejaVuSans-72" x="1081.746094"/>
       <use xlink:href="#DejaVuSans-69" x="1122.859375"/>
       <use xlink:href="#DejaVuSans-6d" x="1150.642578"/>
       <use xlink:href="#DejaVuSans-65" x="1248.054688"/>
      </g>
     </g>
    </g>
    <g id="text_12">
     <!-- combinations -->
     <g transform="translate(345.989311 562.734687) scale(0.1 -0.1)">
      <use xlink:href="#DejaVuSans-63"/>
      <use xlink:href="#DejaVuSans-6f" x="54.980469"/>
      <use xlink:href="#DejaVuSans-6d" x="116.162109"/>
      <use xlink:href="#DejaVuSans-62" x="213.574219"/>
      <use xlink:href="#DejaVuSans-69" x="277.050781"/>
      <use xlink:href="#DejaVuSans-6e" x="304.833984"/>
      <use xlink:href="#DejaVuSans-61" x="368.212891"/>
      <use xlink:href="#DejaVuSans-74" x="429.492188"/>
      <use xlink:href="#DejaVuSans-69" x="468.701172"/>
      <use xlink:href="#DejaVuSans-6f" x="496.484375"/>
      <use xlink:href="#DejaVuSans-6e" x="557.666016"/>
      <use xlink:href="#DejaVuSans-73" x="621.044922"/>
     </g>
    </g>
   </g>
   <g id="matplotlib.axis_2">
    <g id="ytick_1">
     <g id="line2d_23">
      <path d="M 50.092685 306.396136 
L 709.2 306.396136 
" clip-path="url(#p99bb339313)" style="fill: none; stroke: #b0b0b0; stroke-width: 0.8; stroke-linecap: square"/>
     </g>
     <g id="line2d_24">
      <defs>
       <path id="m6d8a09c035" d="M 0 0 
L -3.5 0 
" style="stroke: #000000; stroke-width: 0.8"/>
      </defs>
      <g>
       <use xlink:href="#m6d8a09c035" x="50.092685" y="306.396136" style="stroke: #000000; stroke-width: 0.8"/>
      </g>
     </g>
     <g id="text_13">
      <!-- $\mathdefault{10^{5}}$ -->
      <g transform="translate(25.492685 310.195355) scale(0.1 -0.1)">
       <defs>
        <path id="DejaVuSans-35" d="M 691 4666 
L 3169 4666 
L 3169 4134 
L 1269 4134 
L 1269 2991 
Q 1406 3038 1543 3061 
Q 1681 3084 1819 3084 
Q 2600 3084 3056 2656 
Q 3513 2228 3513 1497 
Q 3513 744 3044 326 
Q 2575 -91 1722 -91 
Q 1428 -91 1123 -41 
Q 819 9 494 109 
L 494 744 
Q 775 591 1075 516 
Q 1375 441 1709 441 
Q 2250 441 2565 725 
Q 2881 1009 2881 1497 
Q 2881 1984 2565 2268 
Q 2250 2553 1709 2553 
Q 1456 2553 1204 2497 
Q 953 2441 691 2322 
L 691 4666 
z
" transform="scale(0.015625)"/>
       </defs>
       <use xlink:href="#DejaVuSans-31" transform="translate(0 0.684375)"/>
       <use xlink:href="#DejaVuSans-30" transform="translate(63.623047 0.684375)"/>
       <use xlink:href="#DejaVuSans-35" transform="translate(128.203125 38.965625) scale(0.7)"/>
      </g>
     </g>
    </g>
    <g id="ytick_2">
     <g id="line2d_25">
      <path d="M 50.092685 196.288285 
L 709.2 196.288285 
" clip-path="url(#p99bb339313)" style="fill: none; stroke: #b0b0b0; stroke-width: 0.8; stroke-linecap: square"/>
     </g>
     <g id="line2d_26">
      <g>
       <use xlink:href="#m6d8a09c035" x="50.092685" y="196.288285" style="stroke: #000000; stroke-width: 0.8"/>
      </g>
     </g>
     <g id="text_14">
      <!-- $\mathdefault{10^{6}}$ -->
      <g transform="translate(25.492685 200.087504) scale(0.1 -0.1)">
       <defs>
        <path id="DejaVuSans-36" d="M 2113 2584 
Q 1688 2584 1439 2293 
Q 1191 2003 1191 1497 
Q 1191 994 1439 701 
Q 1688 409 2113 409 
Q 2538 409 2786 701 
Q 3034 994 3034 1497 
Q 3034 2003 2786 2293 
Q 2538 2584 2113 2584 
z
M 3366 4563 
L 3366 3988 
Q 3128 4100 2886 4159 
Q 2644 4219 2406 4219 
Q 1781 4219 1451 3797 
Q 1122 3375 1075 2522 
Q 1259 2794 1537 2939 
Q 1816 3084 2150 3084 
Q 2853 3084 3261 2657 
Q 3669 2231 3669 1497 
Q 3669 778 3244 343 
Q 2819 -91 2113 -91 
Q 1303 -91 875 529 
Q 447 1150 447 2328 
Q 447 3434 972 4092 
Q 1497 4750 2381 4750 
Q 2619 4750 2861 4703 
Q 3103 4656 3366 4563 
z
" transform="scale(0.015625)"/>
       </defs>
       <use xlink:href="#DejaVuSans-31" transform="translate(0 0.765625)"/>
       <use xlink:href="#DejaVuSans-30" transform="translate(63.623047 0.765625)"/>
       <use xlink:href="#DejaVuSans-36" transform="translate(128.203125 39.046875) scale(0.7)"/>
      </g>
     </g>
    </g>
    <g id="ytick_3">
     <g id="line2d_27">
      <path d="M 50.092685 86.180433 
L 709.2 86.180433 
" clip-path="url(#p99bb339313)" style="fill: none; stroke: #b0b0b0; stroke-width: 0.8; stroke-linecap: square"/>
     </g>
     <g id="line2d_28">
      <g>
       <use xlink:href="#m6d8a09c035" x="50.092685" y="86.180433" style="stroke: #000000; stroke-width: 0.8"/>
      </g>
     </g>
     <g id="text_15">
      <!-- $\mathdefault{10^{7}}$ -->
      <g transform="translate(25.492685 89.979652) scale(0.1 -0.1)">
       <defs>
        <path id="DejaVuSans-37" d="M 525 4666 
L 3525 4666 
L 3525 4397 
L 1831 0 
L 1172 0 
L 2766 4134 
L 525 4134 
L 525 4666 
z
" transform="scale(0.015625)"/>
       </defs>
       <use xlink:href="#DejaVuSans-31" transform="translate(0 0.684375)"/>
       <use xlink:href="#DejaVuSans-30" transform="translate(63.623047 0.684375)"/>
       <use xlink:href="#DejaVuSans-37" transform="translate(128.203125 38.965625) scale(0.7)"/>
      </g>
     </g>
    </g>
    <g id="ytick_4">
     <g id="line2d_29">
      <defs>
       <path id="mbab3a5711c" d="M 0 0 
L -2 0 
" style="stroke: #000000; stroke-width: 0.6"/>
      </defs>
      <g>
       <use xlink:href="#mbab3a5711c" x="50.092685" y="383.358222" style="stroke: #000000; stroke-width: 0.6"/>
      </g>
     </g>
    </g>
    <g id="ytick_5">
     <g id="line2d_30">
      <g>
       <use xlink:href="#mbab3a5711c" x="50.092685" y="363.969191" style="stroke: #000000; stroke-width: 0.6"/>
      </g>
     </g>
    </g>
    <g id="ytick_6">
     <g id="line2d_31">
      <g>
       <use xlink:href="#mbab3a5711c" x="50.092685" y="350.212456" style="stroke: #000000; stroke-width: 0.6"/>
      </g>
     </g>
    </g>
    <g id="ytick_7">
     <g id="line2d_32">
      <g>
       <use xlink:href="#mbab3a5711c" x="50.092685" y="339.541902" style="stroke: #000000; stroke-width: 0.6"/>
      </g>
     </g>
    </g>
    <g id="ytick_8">
     <g id="line2d_33">
      <g>
       <use xlink:href="#mbab3a5711c" x="50.092685" y="330.823425" style="stroke: #000000; stroke-width: 0.6"/>
      </g>
     </g>
    </g>
    <g id="ytick_9">
     <g id="line2d_34">
      <g>
       <use xlink:href="#mbab3a5711c" x="50.092685" y="323.452058" style="stroke: #000000; stroke-width: 0.6"/>
      </g>
     </g>
    </g>
    <g id="ytick_10">
     <g id="line2d_35">
      <g>
       <use xlink:href="#mbab3a5711c" x="50.092685" y="317.06669" style="stroke: #000000; stroke-width: 0.6"/>
      </g>
     </g>
    </g>
    <g id="ytick_11">
     <g id="line2d_36">
      <g>
       <use xlink:href="#mbab3a5711c" x="50.092685" y="311.434395" style="stroke: #000000; stroke-width: 0.6"/>
      </g>
     </g>
    </g>
    <g id="ytick_12">
     <g id="line2d_37">
      <g>
       <use xlink:href="#mbab3a5711c" x="50.092685" y="273.25037" style="stroke: #000000; stroke-width: 0.6"/>
      </g>
     </g>
    </g>
    <g id="ytick_13">
     <g id="line2d_38">
      <g>
       <use xlink:href="#mbab3a5711c" x="50.092685" y="253.86134" style="stroke: #000000; stroke-width: 0.6"/>
      </g>
     </g>
    </g>
    <g id="ytick_14">
     <g id="line2d_39">
      <g>
       <use xlink:href="#mbab3a5711c" x="50.092685" y="240.104604" style="stroke: #000000; stroke-width: 0.6"/>
      </g>
     </g>
    </g>
    <g id="ytick_15">
     <g id="line2d_40">
      <g>
       <use xlink:href="#mbab3a5711c" x="50.092685" y="229.434051" style="stroke: #000000; stroke-width: 0.6"/>
      </g>
     </g>
    </g>
    <g id="ytick_16">
     <g id="line2d_41">
      <g>
       <use xlink:href="#mbab3a5711c" x="50.092685" y="220.715574" style="stroke: #000000; stroke-width: 0.6"/>
      </g>
     </g>
    </g>
    <g id="ytick_17">
     <g id="line2d_42">
      <g>
       <use xlink:href="#mbab3a5711c" x="50.092685" y="213.344207" style="stroke: #000000; stroke-width: 0.6"/>
      </g>
     </g>
    </g>
    <g id="ytick_18">
     <g id="line2d_43">
      <g>
       <use xlink:href="#mbab3a5711c" x="50.092685" y="206.958838" style="stroke: #000000; stroke-width: 0.6"/>
      </g>
     </g>
    </g>
    <g id="ytick_19">
     <g id="line2d_44">
      <g>
       <use xlink:href="#mbab3a5711c" x="50.092685" y="201.326544" style="stroke: #000000; stroke-width: 0.6"/>
      </g>
     </g>
    </g>
    <g id="ytick_20">
     <g id="line2d_45">
      <g>
       <use xlink:href="#mbab3a5711c" x="50.092685" y="163.142519" style="stroke: #000000; stroke-width: 0.6"/>
      </g>
     </g>
    </g>
    <g id="ytick_21">
     <g id="line2d_46">
      <g>
       <use xlink:href="#mbab3a5711c" x="50.092685" y="143.753489" style="stroke: #000000; stroke-width: 0.6"/>
      </g>
     </g>
    </g>
    <g id="ytick_22">
     <g id="line2d_47">
      <g>
       <use xlink:href="#mbab3a5711c" x="50.092685" y="129.996753" style="stroke: #000000; stroke-width: 0.6"/>
      </g>
     </g>
    </g>
    <g id="ytick_23">
     <g id="line2d_48">
      <g>
       <use xlink:href="#mbab3a5711c" x="50.092685" y="119.326199" style="stroke: #000000; stroke-width: 0.6"/>
      </g>
     </g>
    </g>
    <g id="ytick_24">
     <g id="line2d_49">
      <g>
       <use xlink:href="#mbab3a5711c" x="50.092685" y="110.607722" style="stroke: #000000; stroke-width: 0.6"/>
      </g>
     </g>
    </g>
    <g id="ytick_25">
     <g id="line2d_50">
      <g>
       <use xlink:href="#mbab3a5711c" x="50.092685" y="103.236355" style="stroke: #000000; stroke-width: 0.6"/>
      </g>
     </g>
    </g>
    <g id="ytick_26">
     <g id="line2d_51">
      <g>
       <use xlink:href="#mbab3a5711c" x="50.092685" y="96.850987" style="stroke: #000000; stroke-width: 0.6"/>
      </g>
     </g>
    </g>
    <g id="ytick_27">
     <g id="line2d_52">
      <g>
       <use xlink:href="#mbab3a5711c" x="50.092685" y="91.218692" style="stroke: #000000; stroke-width: 0.6"/>
      </g>
     </g>
    </g>
    <g id="ytick_28">
     <g id="line2d_53">
      <g>
       <use xlink:href="#mbab3a5711c" x="50.092685" y="53.034667" style="stroke: #000000; stroke-width: 0.6"/>
      </g>
     </g>
    </g>
    <g id="ytick_29">
     <g id="line2d_54">
      <g>
       <use xlink:href="#mbab3a5711c" x="50.092685" y="33.645637" style="stroke: #000000; stroke-width: 0.6"/>
      </g>
     </g>
    </g>
    <g id="text_16">
     <!-- times -->
     <g transform="translate(19.412997 223.530781) rotate(-90) scale(0.1 -0.1)">
      <use xlink:href="#DejaVuSans-74"/>
      <use xlink:href="#DejaVuSans-69" x="39.208984"/>
      <use xlink:href="#DejaVuSans-6d" x="66.992188"/>
      <use xlink:href="#DejaVuSans-65" x="164.404297"/>
      <use xlink:href="#DejaVuSans-73" x="225.927734"/>
     </g>
    </g>
   </g>
   <g id="patch_3">
    <path d="M 50.092685 392.38 
L 50.092685 26.88 
" style="fill: none; stroke: #000000; stroke-width: 0.8; stroke-linejoin: miter; stroke-linecap: square"/>
   </g>
   <g id="patch_4">
    <path d="M 709.2 392.38 
L 709.2 26.88 
" style="fill: none; stroke: #000000; stroke-width: 0.8; stroke-linejoin: miter; stroke-linecap: square"/>
   </g>
   <g id="patch_5">
    <path d="M 50.092685 392.38 
L 709.2 392.38 
" style="fill: none; stroke: #000000; stroke-width: 0.8; stroke-linejoin: miter; stroke-linecap: square"/>
   </g>
   <g id="patch_6">
    <path d="M 50.092685 26.88 
L 709.2 26.88 
" style="fill: none; stroke: #000000; stroke-width: 0.8; stroke-linejoin: miter; stroke-linecap: square"/>
   </g>
   <g id="text_17">
    <!-- train times -->
    <g transform="translate(347.09353 20.88) scale(0.12 -0.12)">
     <use xlink:href="#DejaVuSans-74"/>
     <use xlink:href="#DejaVuSans-72" x="39.208984"/>
     <use xlink:href="#DejaVuSans-61" x="80.322266"/>
     <use xlink:href="#DejaVuSans-69" x="141.601562"/>
     <use xlink:href="#DejaVuSans-6e" x="169.384766"/>
     <use xlink:href="#DejaVuSans-20" x="232.763672"/>
     <use xlink:href="#DejaVuSans-74" x="264.550781"/>
     <use xlink:href="#DejaVuSans-69" x="303.759766"/>
     <use xlink:href="#DejaVuSans-6d" x="331.542969"/>
     <use xlink:href="#DejaVuSans-65" x="428.955078"/>
     <use xlink:href="#DejaVuSans-73" x="490.478516"/>
    </g>
   </g>
  </g>
 </g>
 <defs>
  <clipPath id="p99bb339313">
   <rect x="50.092685" y="26.88" width="659.107315" height="365.5"/>
  </clipPath>
 </defs>
</svg>
